<svg width="195" height="34" viewBox="0 0 195 34" fill="none" xmlns="http://www.w3.org/2000/svg">
<path d="M47.3874 28.0396C44.4823 28.0396 42.0129 27.0457 39.9832 25.0542C37.9534 23.0626 36.9404 20.6468 36.9404 17.8105C36.9404 14.9703 37.9534 12.5583 39.9832 10.5744C42.0129 8.59054 44.4785 7.59668 47.3874 7.59668C49.7497 7.59668 51.856 8.27708 53.7099 9.63408C55.5638 10.9911 56.8214 12.7418 57.4865 14.8824H53.729C53.1862 13.6286 52.3452 12.6233 51.2099 11.8626C50.0708 11.1019 48.8017 10.7235 47.3912 10.7235C45.4379 10.7235 43.7636 11.4039 42.3684 12.7686C40.9694 14.1332 40.2737 15.8113 40.2737 17.8105C40.2737 19.7409 40.977 21.4037 42.3875 22.8027C43.7942 24.2017 45.4647 24.8974 47.3951 24.8974C48.8017 24.8974 50.0746 24.519 51.2138 23.7583C52.3491 22.9976 53.19 21.9923 53.7328 20.7385H57.4904C56.8367 22.8792 55.5791 24.6299 53.7213 25.9945C51.8598 27.3553 49.7497 28.0396 47.3874 28.0396Z" fill="#1B57ED"/>
<path d="M60.9612 15.0453C62.4979 13.5698 64.3671 12.832 66.5689 12.832C68.7707 12.832 70.6361 13.5698 72.1651 15.0453C73.6941 16.5208 74.4624 18.3136 74.4624 20.4274C74.4624 22.5413 73.6979 24.3379 72.1651 25.8172C70.6361 27.2965 68.7669 28.0381 66.5689 28.0381C64.3671 28.0381 62.4979 27.2965 60.9612 25.8172C59.4246 24.3379 58.6562 22.5413 58.6562 20.4274C58.6562 18.3136 59.4246 16.5208 60.9612 15.0453ZM63.3312 23.6192C64.218 24.4678 65.296 24.8921 66.5689 24.8921C67.838 24.8921 68.9159 24.4678 69.8028 23.6192C70.6896 22.7706 71.133 21.708 71.133 20.4351C71.133 19.1621 70.6896 18.0995 69.8028 17.2509C68.9159 16.4023 67.838 15.978 66.5689 15.978C65.2998 15.978 64.2219 16.4023 63.3312 17.2509C62.4444 18.0995 62.001 19.1621 62.001 20.4351C62.001 21.708 62.4444 22.7706 63.3312 23.6192Z" fill="#1B57ED"/>
<path d="M88.5983 27.6517V26.1876C87.2566 27.4185 85.5097 28.0339 83.3576 28.0339C81.3393 28.0339 79.5962 27.2885 78.1245 25.7977C76.6567 24.3069 75.9189 22.5142 75.9189 20.4232C75.9189 18.3323 76.649 16.5434 78.1131 15.0564C79.5771 13.5694 81.324 12.8279 83.3538 12.8279C85.5173 12.8279 87.2642 13.4433 88.5945 14.6742V13.2101H91.9392V27.6478H88.5983V27.6517ZM83.8927 24.8918C85.2115 24.8918 86.3277 24.4751 87.2375 23.6342C88.1472 22.797 88.6021 21.7306 88.6021 20.4309C88.6021 19.1312 88.1472 18.0647 87.2375 17.2276C86.3277 16.3905 85.2153 15.97 83.8927 15.97C82.5969 15.97 81.4998 16.3905 80.6092 17.2276C79.7147 18.0647 79.2713 19.1312 79.2713 20.4309C79.2713 21.7267 79.7185 22.797 80.6092 23.6342C81.4998 24.4713 82.5931 24.8918 83.8927 24.8918Z" fill="#1B57ED"/>
<path d="M96.3235 25.8172C94.8136 24.3379 94.0605 22.5413 94.0605 20.4274C94.0605 18.3136 94.8174 16.5208 96.3311 15.0453C97.8449 13.5698 99.6873 12.832 101.862 12.832C103.636 12.832 105.207 13.3213 106.572 14.2961C107.936 15.2708 108.858 16.6125 109.332 18.3212H105.788C105.49 17.5452 104.982 16.9604 104.267 16.5667C103.552 16.1729 102.726 15.9742 101.797 15.9742C100.589 15.9742 99.5535 16.3985 98.6935 17.2471C97.8334 18.0957 97.4053 19.1583 97.4053 20.4312C97.4053 21.7041 97.8372 22.7668 98.7011 23.6154C99.565 24.464 100.597 24.8883 101.797 24.8883C102.73 24.8883 103.552 24.6895 104.267 24.2882C104.982 23.8906 105.49 23.3058 105.788 22.5413H109.332C108.854 24.25 107.933 25.5917 106.572 26.5664C105.207 27.5412 103.64 28.0304 101.862 28.0304C99.6797 28.0381 97.8334 27.2965 96.3235 25.8172Z" fill="#1B57ED"/>
<path d="M121.39 27.6528V19.5835C121.39 17.1791 120.297 15.975 118.115 15.975C117.461 15.975 116.876 16.1202 116.36 16.4146C115.844 16.7089 115.462 17.0835 115.213 17.5384C114.965 17.9933 114.777 18.4176 114.655 18.8113C114.533 19.205 114.472 19.5529 114.472 19.851V27.6528H111.127V7.2749H114.472V14.6791C115.469 13.4483 116.945 12.8329 118.898 12.8329C119.984 12.8329 120.928 13.0202 121.727 13.3986C122.526 13.777 123.111 14.1975 123.481 14.6639C123.852 15.1302 124.143 15.6692 124.345 16.277C124.552 16.8886 124.663 17.3167 124.685 17.5652C124.708 17.8136 124.72 18.043 124.72 18.257V27.6566H121.39V27.6528Z" fill="#1B57ED"/>
<path d="M137.908 24.5273H137.442L130.554 13.5146V27.6541H127.209V7.92603H130.986L137.671 18.5909L144.342 7.92603H148.134V27.6541H144.789V13.5146L137.908 24.5273Z" fill="#1B57ED"/>
<path d="M162.94 27.6517V26.1876C161.598 27.4185 159.851 28.0339 157.699 28.0339C155.681 28.0339 153.938 27.2885 152.466 25.7977C150.998 24.3069 150.261 22.5142 150.261 20.4232C150.261 18.3323 150.991 16.5434 152.455 15.0564C153.919 13.5694 155.666 12.8279 157.696 12.8279C159.859 12.8279 161.606 13.4433 162.936 14.6742V13.2101H166.281V27.6478H162.94V27.6517ZM158.235 24.8918C159.553 24.8918 160.67 24.4751 161.579 23.6342C162.489 22.797 162.944 21.7306 162.944 20.4309C162.944 19.1312 162.489 18.0647 161.579 17.2276C160.67 16.3905 159.557 15.97 158.235 15.97C156.939 15.97 155.842 16.3905 154.951 17.2276C154.057 18.0647 153.613 19.1312 153.613 20.4309C153.613 21.7267 154.06 22.797 154.951 23.6342C155.842 24.4713 156.935 24.8918 158.235 24.8918Z" fill="#1B57ED"/>
<path d="M167.855 16.3406V13.2137H170.967V8.20623C171.422 8.09537 171.999 7.93482 172.706 7.72458C173.41 7.51435 173.945 7.36526 174.312 7.27734V13.2176H178.253V16.3444H174.312V22.1661C174.312 23.8518 175.183 24.6966 176.923 24.6966C177.488 24.6966 177.92 24.6851 178.218 24.6622V27.5559C177.565 27.6209 176.758 27.6552 175.806 27.6552C175.508 27.6552 175.233 27.6438 174.984 27.6208C174.736 27.5979 174.338 27.4909 173.796 27.2959C173.253 27.101 172.798 26.8296 172.431 26.4817C172.064 26.1339 171.732 25.5758 171.426 24.8113C171.12 24.0468 170.967 23.1408 170.967 22.1011V16.3444H167.855V16.3406Z" fill="#1B57ED"/>
<path d="M194.566 20.7328V21.8643H183.053C183.641 23.8826 185.082 24.8917 187.38 24.8917C188.657 24.8917 189.857 24.6203 190.988 24.0775L192.869 26.738C191.114 27.6019 189.276 28.0377 187.345 28.0377C185.14 28.0377 183.313 27.3343 181.872 25.9238C180.43 24.5171 179.708 22.6861 179.708 20.4346C179.708 18.294 180.408 16.4936 181.803 15.0296C183.202 13.5655 184.979 12.8354 187.143 12.8354C189.161 12.8354 190.9 13.535 192.368 14.9302C193.832 16.3254 194.566 18.2596 194.566 20.7328ZM189.608 16.7383C188.855 16.2299 188.033 15.9737 187.147 15.9737C186.26 15.9737 185.434 16.2299 184.677 16.7383C183.917 17.2505 183.389 18.0035 183.087 19.0012H191.187C190.889 18.0035 190.361 17.2505 189.608 16.7383Z" fill="#1B57ED"/>
<path d="M13.6965 32.8632C13.0536 33.6979 11.7939 33.6979 11.1488 32.8632C10.0962 31.4968 8.50966 29.3806 6.86426 26.9616L18.7438 25.824C16.8347 28.7094 14.9125 31.2876 13.6965 32.8632Z" fill="#1B57ED"/>
<path d="M3.94406 5.99099C5.27346 8.46454 5.32141 14.9524 5.30833 16.6632C5.30615 16.8637 5.10129 16.9966 4.91823 16.916C3.99201 16.5085 2.42288 15.7697 0.9649 15.0766C0.744787 14.972 0.505062 15.1791 0.579159 15.4101C0.716458 15.835 0.875548 16.2731 1.05425 16.7198C1.08041 16.783 1.12835 16.8354 1.1872 16.8659L4.84849 18.7205C4.9422 18.7684 5.00104 18.8643 5.00104 18.9689V24.0555C5.00104 24.1078 5.01629 24.1601 5.04463 24.2037C5.32576 24.6483 5.60908 25.0885 5.89457 25.5222C6.04495 25.7532 6.40454 25.6442 6.40454 25.3696V20.0564C6.40454 19.808 6.70529 19.6837 6.87963 19.8625C7.57266 20.5707 8.93911 21.7498 10.4145 21.813C12.3738 21.9001 17.7306 22.3469 19.4828 19.8167C19.6288 19.6053 19.9535 19.6816 19.9884 19.9344C20.1409 21.0284 20.1518 22.9527 18.55 23.6436C18.3364 23.7351 18.3125 24.0272 18.5151 24.1427L19.243 24.5611C19.3716 24.6352 19.5372 24.596 19.6157 24.4696C22.3486 20.1741 24.8156 15.4515 24.8156 12.3982C24.8156 5.55077 19.2648 0 12.4173 0C7.86688 0 3.8874 2.45175 1.73203 6.10867C1.59473 6.33968 1.83228 6.6121 2.08073 6.50749L3.59319 5.87113C3.72395 5.81228 3.8765 5.86459 3.94406 5.99099ZM6.63555 17.4761C6.55055 16.3297 6.02969 9.75252 5.24948 7.12206C5.19282 6.93246 5.34756 6.74504 5.5437 6.76684C6.06456 6.82568 6.89925 7.10027 6.98206 8.25314C7.09975 9.93776 7.03001 11.1233 8.02597 11.1233C9.02193 11.1233 9.09384 10.9337 8.92821 9.70022C8.76476 8.48633 8.80835 6.26123 5.07732 6.19149C4.96835 6.18931 4.8681 6.12611 4.82452 6.02368C4.74606 5.8428 4.87682 5.63794 5.07514 5.63576C7.16513 5.60743 16.4796 5.64447 17.7959 8.50594C17.8461 8.61709 17.9638 8.68465 18.0836 8.66721C18.6263 8.59094 20.0559 8.4994 20.5528 9.50843C21.1696 10.7659 21.8103 12.189 21.0039 12.4266C20.1976 12.6641 20.3632 11.7619 20.0559 10.8378C19.7857 10.0271 19.4958 9.12487 18.5805 9.03552C18.3778 9.0159 18.2296 9.22294 18.3016 9.41254C18.7418 10.5763 20.0385 14.3248 19.7879 17.6461C19.7792 17.7616 19.6963 17.8596 19.5852 17.8902C18.4301 18.2192 12.1101 19.8472 6.81426 17.7114C6.70965 17.6744 6.64427 17.5807 6.63555 17.4761Z" fill="#1B57ED"/>
<path d="M16.7531 8.72808C17.4875 9.65212 18.8649 14.8237 18.6033 16.602C18.3418 18.3804 10.4199 17.2427 10.4199 17.2427C18.32 17.4585 16.7073 8.66924 16.7531 8.72808Z" fill="#1B57ED"/>
</svg>
