<svg width="230" height="40" viewBox="0 0 230 40" fill="none" xmlns="http://www.w3.org/2000/svg">
<path d="M55.5106 33.2425C52.0664 33.2425 49.1388 32.0642 46.7324 29.7031C44.3259 27.342 43.125 24.4779 43.125 21.1153C43.125 17.7481 44.3259 14.8885 46.7324 12.5364C49.1388 10.1844 52.0618 9.0061 55.5106 9.0061C58.3113 9.0061 60.8084 9.81277 63.0063 11.4216C65.2043 13.0304 66.6953 15.106 67.4838 17.6438H63.029C62.3855 16.1574 61.3884 14.9655 60.0425 14.0637C58.692 13.1618 57.1874 12.7132 55.5151 12.7132C53.1994 12.7132 51.2144 13.5198 49.5603 15.1377C47.9016 16.7556 47.0768 18.7451 47.0768 21.1153C47.0768 23.4039 47.9107 25.3752 49.5829 27.0339C51.2506 28.6925 53.2311 29.5173 55.5197 29.5173C57.1874 29.5173 58.6965 29.0687 60.047 28.1668C61.393 27.265 62.39 26.0731 63.0335 24.5867H67.4883C66.7134 27.1245 65.2224 29.2001 63.0199 30.818C60.8129 32.4313 58.3113 33.2425 55.5106 33.2425Z" fill="white"/>
<path d="M71.6048 17.8378C73.4266 16.0885 75.6427 15.2139 78.253 15.2139C80.8634 15.2139 83.075 16.0885 84.8877 17.8378C86.7005 19.5871 87.6114 21.7126 87.6114 24.2187C87.6114 26.7248 86.705 28.8548 84.8877 30.6086C83.075 32.3625 80.8589 33.2417 78.253 33.2417C75.6427 33.2417 73.4266 32.3625 71.6048 30.6086C69.783 28.8548 68.8721 26.7248 68.8721 24.2187C68.8721 21.7126 69.783 19.5871 71.6048 17.8378ZM74.4146 28.0028C75.4659 29.0089 76.7439 29.5119 78.253 29.5119C79.7576 29.5119 81.0356 29.0089 82.087 28.0028C83.1384 26.9967 83.6641 25.7369 83.6641 24.2278C83.6641 22.7187 83.1384 21.4588 82.087 20.4527C81.0356 19.4466 79.7576 18.9436 78.253 18.9436C76.7485 18.9436 75.4705 19.4466 74.4146 20.4527C73.3632 21.4588 72.8375 22.7187 72.8375 24.2278C72.8375 25.7369 73.3632 26.9967 74.4146 28.0028Z" fill="white"/>
<path d="M104.367 32.7838V31.0481C102.776 32.5074 100.705 33.237 98.154 33.237C95.7612 33.237 93.6946 32.3533 91.9498 30.5859C90.2096 28.8184 89.335 26.693 89.335 24.2141C89.335 21.7351 90.2005 19.6142 91.9363 17.8513C93.672 16.0884 95.743 15.2092 98.1495 15.2092C100.714 15.2092 102.786 15.9389 104.363 17.3981V15.6624H108.328V32.7793H104.367V32.7838ZM98.7884 29.5118C100.352 29.5118 101.675 29.0178 102.754 28.0208C103.832 27.0283 104.372 25.764 104.372 24.2231C104.372 22.6823 103.832 21.4179 102.754 20.4254C101.675 19.4329 100.356 18.9344 98.7884 18.9344C97.2521 18.9344 95.9515 19.4329 94.8956 20.4254C93.8351 21.4179 93.3094 22.6823 93.3094 24.2231C93.3094 25.7594 93.8396 27.0283 94.8956 28.0208C95.9515 29.0133 97.2476 29.5118 98.7884 29.5118Z" fill="white"/>
<path d="M113.53 30.6087C111.739 28.8548 110.847 26.7249 110.847 24.2187C110.847 21.7126 111.744 19.5871 113.539 17.8378C115.333 16.0885 117.518 15.2139 120.096 15.2139C122.199 15.2139 124.062 15.794 125.68 16.9496C127.297 18.1052 128.39 19.6959 128.952 21.7217H124.75C124.397 20.8017 123.794 20.1083 122.947 19.6415C122.099 19.1747 121.12 18.9391 120.019 18.9391C118.587 18.9391 117.359 19.4421 116.339 20.4482C115.32 21.4543 114.812 22.7141 114.812 24.2232C114.812 25.7324 115.324 26.9922 116.348 27.9983C117.373 29.0044 118.596 29.5074 120.019 29.5074C121.125 29.5074 122.099 29.2718 122.947 28.7959C123.794 28.3246 124.397 27.6312 124.75 26.7249H128.952C128.385 28.7506 127.293 30.3413 125.68 31.4969C124.062 32.6525 122.204 33.2326 120.096 33.2326C117.509 33.2417 115.32 32.3625 113.53 30.6087Z" fill="white"/>
<path d="M143.245 32.7847V23.2179C143.245 20.3673 141.949 18.9398 139.361 18.9398C138.586 18.9398 137.893 19.112 137.281 19.461C136.669 19.8099 136.216 20.254 135.922 20.7933C135.627 21.3326 135.405 21.8357 135.26 22.3024C135.115 22.7692 135.043 23.1816 135.043 23.5351V32.7847H131.077V8.62524H135.043V17.4035C136.225 15.9442 137.975 15.2146 140.29 15.2146C141.578 15.2146 142.697 15.4366 143.644 15.8853C144.591 16.334 145.285 16.8325 145.724 17.3853C146.164 17.9382 146.508 18.5772 146.748 19.2978C146.993 20.0229 147.125 20.5305 147.152 20.825C147.179 21.1196 147.192 21.3915 147.192 21.6453V32.7892H143.245V32.7847Z" fill="white"/>
<path d="M162.829 29.0787H162.276L154.11 16.0223V32.7857H150.145V9.39673H154.622L162.548 22.0407L170.456 9.39673H174.952V32.7857H170.987V16.0223L162.829 29.0787Z" fill="white"/>
<path d="M192.505 32.7838V31.0481C190.914 32.5074 188.843 33.237 186.292 33.237C183.899 33.237 181.832 32.3533 180.088 30.5859C178.347 28.8184 177.473 26.693 177.473 24.2141C177.473 21.7351 178.338 19.6142 180.074 17.8513C181.81 16.0884 183.881 15.2092 186.287 15.2092C188.852 15.2092 190.923 15.9389 192.5 17.3981V15.6624H196.466V32.7793H192.505V32.7838ZM186.926 29.5118C188.49 29.5118 189.813 29.0178 190.892 28.0208C191.97 27.0283 192.509 25.764 192.509 24.2231C192.509 22.6823 191.97 21.4179 190.892 20.4254C189.813 19.4329 188.494 18.9344 186.926 18.9344C185.39 18.9344 184.089 19.4329 183.033 20.4254C181.973 21.4179 181.447 22.6823 181.447 24.2231C181.447 25.7594 181.977 27.0283 183.033 28.0208C184.089 29.0133 185.385 29.5118 186.926 29.5118Z" fill="white"/>
<path d="M198.333 19.373V15.6659H202.022V9.72918C202.561 9.59776 203.246 9.40742 204.084 9.15816C204.918 8.90891 205.552 8.73216 205.987 8.62793V15.6705H210.66V19.3775H205.987V26.2796C205.987 28.2781 207.021 29.2797 209.083 29.2797C209.753 29.2797 210.265 29.2661 210.619 29.2389V32.6695C209.844 32.7466 208.888 32.7873 207.759 32.7873C207.406 32.7873 207.08 32.7737 206.785 32.7465C206.49 32.7194 206.019 32.5925 205.376 32.3613C204.732 32.1302 204.193 31.8085 203.758 31.3961C203.323 30.9837 202.928 30.322 202.566 29.4156C202.203 28.5093 202.022 27.4352 202.022 26.2025V19.3775H198.333V19.373Z" fill="white"/>
<path d="M230 24.5801V25.9216H216.35C217.048 28.3144 218.757 29.5108 221.48 29.5108C222.994 29.5108 224.417 29.1891 225.758 28.5455L227.988 31.6997C225.908 32.7239 223.728 33.2405 221.439 33.2405C218.825 33.2405 216.658 32.4067 214.95 30.7344C213.241 29.0667 212.385 26.8959 212.385 24.2267C212.385 21.6888 213.214 19.5543 214.868 17.8186C216.527 16.0829 218.634 15.2173 221.199 15.2173C223.592 15.2173 225.654 16.0466 227.394 17.7008C229.13 19.3549 230 21.648 230 24.5801ZM224.122 19.8443C223.23 19.2416 222.255 18.9379 221.204 18.9379C220.152 18.9379 219.174 19.2416 218.276 19.8443C217.374 20.4516 216.749 21.3444 216.391 22.5272H225.994C225.641 21.3444 225.015 20.4516 224.122 19.8443Z" fill="white"/>
<path d="M15.5639 38.9605C14.8017 39.9501 13.3083 39.9501 12.5435 38.9605C11.2956 37.3405 9.4146 34.8317 7.46387 31.9637L21.5479 30.615C19.2845 34.0359 17.0057 37.0924 15.5639 38.9605Z" fill="white"/>
<path d="M4.0056 7.10273C5.58169 10.0353 5.63853 17.7271 5.62303 19.7553C5.62045 19.993 5.37757 20.1507 5.16054 20.0551C4.06244 19.5719 2.20213 18.696 0.473599 17.8744C0.21264 17.7504 -0.0715706 17.9958 0.0162771 18.2697C0.179054 18.7735 0.367666 19.2929 0.579534 19.8225C0.610539 19.8975 0.667386 19.9595 0.737147 19.9956L5.07786 22.1944C5.18896 22.2512 5.25872 22.3649 5.25872 22.489V28.5194C5.25872 28.5814 5.2768 28.6434 5.31039 28.6951C5.6437 29.2222 5.97959 29.7441 6.31806 30.2583C6.49634 30.5322 6.92266 30.403 6.92266 30.0774V23.7782C6.92266 23.4837 7.27922 23.3364 7.48592 23.5483C8.30755 24.388 9.92757 25.7858 11.6768 25.8607C13.9996 25.9641 20.3504 26.4938 22.4278 23.494C22.6009 23.2434 22.9859 23.3338 23.0272 23.6336C23.2081 24.9306 23.221 27.212 21.3219 28.0311C21.0687 28.1396 21.0403 28.4858 21.2806 28.6228L22.1436 29.1189C22.296 29.2067 22.4924 29.1602 22.5854 29.0103C25.8254 23.9178 28.7502 18.3188 28.7502 14.699C28.7502 6.58081 22.1694 0 14.0512 0C8.65636 0 3.93842 2.90672 1.38309 7.24225C1.22031 7.51613 1.50194 7.8391 1.79649 7.71508L3.58962 6.96062C3.74464 6.89086 3.9255 6.95287 4.0056 7.10273ZM7.19654 20.7191C7.09577 19.36 6.47825 11.5623 5.55327 8.44369C5.48609 8.2189 5.66954 7.99671 5.90207 8.02255C6.51959 8.09231 7.50917 8.41785 7.60735 9.78466C7.74688 11.7819 7.6642 13.1875 8.84498 13.1875C10.0258 13.1875 10.111 12.9627 9.91465 11.5003C9.72087 10.0611 9.77255 7.42311 5.34915 7.34043C5.21997 7.33785 5.10111 7.26292 5.04944 7.14149C4.95642 6.92703 5.11145 6.68416 5.34657 6.68158C7.82439 6.64799 18.8674 6.69191 20.428 10.0844C20.4874 10.2161 20.6269 10.2962 20.769 10.2756C21.4124 10.1851 23.1073 10.0766 23.6964 11.2729C24.4276 12.7637 25.1872 14.4509 24.2312 14.7325C23.2753 15.0142 23.4716 13.9445 23.1073 12.849C22.7869 11.8878 22.4433 10.8182 21.3581 10.7122C21.1178 10.689 20.9421 10.9344 21.0274 11.1592C21.5493 12.5389 23.0866 16.983 22.7895 20.9206C22.7792 21.0576 22.681 21.1738 22.5492 21.21C21.1798 21.6001 13.6869 23.5302 7.40841 20.9981C7.28439 20.9542 7.20687 20.8431 7.19654 20.7191Z" fill="white"/>
<path d="M19.191 10.348C20.0617 11.4435 21.6947 17.5748 21.3846 19.6831C21.0746 21.7914 11.6826 20.4427 11.6826 20.4427C21.0487 20.6985 19.1367 10.2782 19.191 10.348Z" fill="white"/>
</svg>
